%FSTAX25Y25*%
%MOIN*%
%SFA1B1*%

%IPPOS*%
%ADD10C,0.010000*%
%ADD11C,0.005905*%
%LNpcb1-1*%
%LPD*%
G54D10*
X0475923Y0590745D02*
D01*
X0475913Y0591041*
X0475882Y0591335*
X047583Y0591626*
X0475759Y0591913*
X0475668Y0592195*
X0475557Y0592469*
X0475427Y0592735*
X0475279Y0592991*
X0475114Y0593237*
X0474931Y059347*
X0474734Y059369*
X0474521Y0593895*
X0474294Y0594085*
X0474055Y0594259*
X0473804Y0594416*
X0473543Y0594555*
X0473272Y0594675*
X0472994Y0594776*
X047271Y0594858*
X0472421Y0594919*
X0472128Y0594961*
X0471832Y0594981*
X0471537*
X0471241Y0594961*
X0470949Y0594919*
X0470659Y0594858*
X0470375Y0594776*
X0470097Y0594675*
X0469826Y0594555*
X0469565Y0594416*
X0469314Y0594259*
X0469075Y0594085*
X0468848Y0593895*
X0468636Y059369*
X0468438Y059347*
X0468255Y0593237*
X046809Y0592991*
X0467942Y0592735*
X0467812Y0592469*
X0467702Y0592195*
X046761Y0591913*
X0467539Y0591626*
X0467487Y0591335*
X0467456Y0591041*
X0467446Y0590745*
X0467456Y059045*
X0467487Y0590155*
X0467539Y0589864*
X046761Y0589577*
X0467702Y0589295*
X0467812Y0589021*
X0467942Y0588755*
X046809Y0588499*
X0468255Y0588254*
X0468438Y0588021*
X0468636Y0587801*
X0468848Y0587595*
X0469075Y0587405*
X0469314Y0587231*
X0469565Y0587074*
X0469826Y0586936*
X0470097Y0586815*
X0470375Y0586714*
X0470659Y0586632*
X0470949Y0586571*
X0471241Y058653*
X0471537Y0586509*
X0471832*
X0472128Y058653*
X0472421Y0586571*
X047271Y0586632*
X0472994Y0586714*
X0473272Y0586815*
X0473543Y0586936*
X0473804Y0587074*
X0474055Y0587231*
X0474294Y0587405*
X0474521Y0587595*
X0474734Y0587801*
X0474931Y0588021*
X0475114Y0588254*
X0475279Y0588499*
X0475427Y0588755*
X0475557Y0589021*
X0475668Y0589295*
X0475759Y0589577*
X047583Y0589864*
X0475882Y0590155*
X0475913Y059045*
X0475923Y0590745*
Y0564761D02*
D01*
X0475913Y0565057*
X0475882Y0565351*
X047583Y0565642*
X0475759Y0565929*
X0475668Y0566211*
X0475557Y0566485*
X0475427Y0566751*
X0475279Y0567007*
X0475114Y0567252*
X0474931Y0567485*
X0474734Y0567705*
X0474521Y0567911*
X0474294Y0568101*
X0474055Y0568275*
X0473804Y0568432*
X0473543Y0568571*
X0473272Y0568691*
X0472994Y0568792*
X047271Y0568874*
X0472421Y0568935*
X0472128Y0568976*
X0471832Y0568997*
X0471537*
X0471241Y0568976*
X0470949Y0568935*
X0470659Y0568874*
X0470375Y0568792*
X0470097Y0568691*
X0469826Y0568571*
X0469565Y0568432*
X0469314Y0568275*
X0469075Y0568101*
X0468848Y0567911*
X0468636Y0567705*
X0468438Y0567485*
X0468255Y0567252*
X046809Y0567007*
X0467942Y0566751*
X0467812Y0566485*
X0467702Y0566211*
X046761Y0565929*
X0467539Y0565642*
X0467487Y0565351*
X0467456Y0565057*
X0467446Y0564761*
X0467456Y0564465*
X0467487Y0564171*
X0467539Y056388*
X046761Y0563593*
X0467702Y0563311*
X0467812Y0563037*
X0467942Y0562771*
X046809Y0562515*
X0468255Y056227*
X0468438Y0562036*
X0468636Y0561817*
X0468848Y0561611*
X0469075Y0561421*
X0469314Y0561247*
X0469565Y056109*
X0469826Y0560951*
X0470097Y0560831*
X0470375Y056073*
X0470659Y0560648*
X0470949Y0560587*
X0471241Y0560546*
X0471537Y0560525*
X0471832*
X0472128Y0560546*
X0472421Y0560587*
X047271Y0560648*
X0472994Y056073*
X0473272Y0560831*
X0473543Y0560951*
X0473804Y056109*
X0474055Y0561247*
X0474294Y0561421*
X0474521Y0561611*
X0474734Y0561817*
X0474931Y0562036*
X0475114Y056227*
X0475279Y0562515*
X0475427Y0562771*
X0475557Y0563037*
X0475668Y0563311*
X0475759Y0563593*
X047583Y056388*
X0475882Y0564171*
X0475913Y0564465*
X0475923Y0564761*
X0651805Y0497059D02*
D01*
X0652387Y0496126*
X0653033Y0495237*
X065374Y0494395*
X0654503Y0493604*
X065532Y0492869*
X0656186Y0492192*
X0657098Y0491577*
X065805Y0491028*
X0659038Y0490546*
X0660057Y0490134*
X0661102Y0489795*
X0662169Y0489529*
X0663251Y0489338*
X0664344Y0489223*
X0665443Y0489185*
X0666541Y0489223*
X0667635Y0489338*
X0668717Y0489529*
X0669784Y0489795*
X0670829Y0490134*
X0671848Y0490546*
X0672836Y0491028*
X0673788Y0491577*
X0674699Y0492192*
X0675565Y0492869*
X0676382Y0493604*
X0677146Y0494395*
X0677852Y0495237*
X0678499Y0496126*
X0679081Y0497059*
X066938Y0504933D02*
D01*
X066937Y0505207*
X0669342Y050548*
X0669294Y0505751*
X0669227Y0506018*
X0669142Y0506279*
X0669039Y0506534*
X0668919Y0506781*
X0668782Y0507019*
X0668628Y0507247*
X0668459Y0507463*
X0668275Y0507667*
X0668077Y0507858*
X0667867Y0508035*
X0667644Y0508196*
X0667411Y0508342*
X0667169Y0508471*
X0666918Y0508583*
X0666659Y0508677*
X0666395Y0508753*
X0666126Y050881*
X0665854Y0508848*
X066558Y0508867*
X0665305*
X0665031Y0508848*
X0664759Y050881*
X066449Y0508753*
X0664226Y0508677*
X0663968Y0508583*
X0663717Y0508471*
X0663474Y0508342*
X0663241Y0508196*
X0663019Y0508035*
X0662808Y0507858*
X0662611Y0507667*
X0662427Y0507463*
X0662258Y0507247*
X0662104Y0507019*
X0661967Y0506781*
X0661846Y0506534*
X0661743Y0506279*
X0661658Y0506018*
X0661592Y0505751*
X0661544Y050548*
X0661515Y0505207*
X0661506Y0504933*
X0661515Y0504658*
X0661544Y0504385*
X0661592Y0504114*
X0661658Y0503847*
X0661743Y0503586*
X0661846Y0503331*
X0661967Y0503084*
X0662104Y0502846*
X0662258Y0502618*
X0662427Y0502402*
X0662611Y0502198*
X0662808Y0502007*
X0663019Y050183*
X0663241Y0501669*
X0663474Y0501523*
X0663717Y0501394*
X0663968Y0501282*
X0664226Y0501188*
X066449Y0501113*
X0664759Y0501055*
X0665031Y0501017*
X0665305Y0500998*
X066558*
X0665854Y0501017*
X0666126Y0501055*
X0666395Y0501113*
X0666659Y0501188*
X0666918Y0501282*
X0667169Y0501394*
X0667411Y0501523*
X0667644Y0501669*
X0667867Y050183*
X0668077Y0502007*
X0668275Y0502198*
X0668459Y0502402*
X0668628Y0502618*
X0668782Y0502846*
X0668919Y0503084*
X0669039Y0503331*
X0669142Y0503586*
X0669227Y0503847*
X0669294Y0504114*
X0669342Y0504385*
X066937Y0504658*
X066938Y0504933*
X0679081Y0658476D02*
D01*
X0678499Y0659408*
X0677852Y0660297*
X0677146Y0661139*
X0676382Y066193*
X0675565Y0662666*
X0674699Y0663342*
X0673788Y0663957*
X0672836Y0664507*
X0671848Y0664988*
X0670829Y06654*
X0669784Y066574*
X0668717Y0666006*
X0667635Y0666197*
X0666541Y0666312*
X0665443Y066635*
X0664344Y0666312*
X0663251Y0666197*
X0662169Y0666006*
X0661102Y066574*
X0660057Y06654*
X0659038Y0664988*
X065805Y0664507*
X0657098Y0663957*
X0656186Y0663342*
X065532Y0662666*
X0654503Y066193*
X065374Y0661139*
X0653033Y0660297*
X0652387Y0659408*
X0651805Y0658476*
X066938Y0650602D02*
D01*
X066937Y0650876*
X0669342Y065115*
X0669294Y065142*
X0669227Y0651687*
X0669142Y0651948*
X0669039Y0652203*
X0668919Y065245*
X0668782Y0652688*
X0668628Y0652916*
X0668459Y0653133*
X0668275Y0653337*
X0668077Y0653528*
X0667867Y0653704*
X0667644Y0653866*
X0667411Y0654011*
X0667169Y065414*
X0666918Y0654252*
X0666659Y0654346*
X0666395Y0654422*
X0666126Y0654479*
X0665854Y0654517*
X066558Y0654536*
X0665305*
X0665031Y0654517*
X0664759Y0654479*
X066449Y0654422*
X0664226Y0654346*
X0663968Y0654252*
X0663717Y065414*
X0663474Y0654011*
X0663241Y0653866*
X0663019Y0653704*
X0662808Y0653528*
X0662611Y0653337*
X0662427Y0653133*
X0662258Y0652916*
X0662104Y0652688*
X0661967Y065245*
X0661846Y0652203*
X0661743Y0651948*
X0661658Y0651687*
X0661592Y065142*
X0661544Y065115*
X0661515Y0650876*
X0661506Y0650602*
X0661515Y0650327*
X0661544Y0650054*
X0661592Y0649783*
X0661658Y0649517*
X0661743Y0649255*
X0661846Y0649001*
X0661967Y0648754*
X0662104Y0648516*
X0662258Y0648288*
X0662427Y0648071*
X0662611Y0647867*
X0662808Y0647676*
X0663019Y0647499*
X0663241Y0647338*
X0663474Y0647192*
X0663717Y0647063*
X0663968Y0646952*
X0664226Y0646858*
X066449Y0646782*
X0664759Y0646725*
X0665031Y0646686*
X0665305Y0646667*
X066558*
X0665854Y0646686*
X0666126Y0646725*
X0666395Y0646782*
X0666659Y0646858*
X0666918Y0646952*
X0667169Y0647063*
X0667411Y0647192*
X0667644Y0647338*
X0667867Y0647499*
X0668077Y0647676*
X0668275Y0647867*
X0668459Y0648071*
X0668628Y0648288*
X0668782Y0648516*
X0668919Y0648754*
X0669039Y0649001*
X0669142Y0649255*
X0669227Y0649517*
X0669294Y0649783*
X0669342Y0650054*
X066937Y0650327*
X066938Y0650602*
X0442861Y0658476D02*
D01*
X0442278Y0659408*
X0441632Y0660297*
X0440925Y0661139*
X0440162Y066193*
X0439345Y0662666*
X0438479Y0663342*
X0437568Y0663957*
X0436616Y0664507*
X0435628Y0664988*
X0434608Y06654*
X0433563Y066574*
X0432497Y0666006*
X0431414Y0666197*
X0430321Y0666312*
X0429222Y066635*
X0428124Y0666312*
X0427031Y0666197*
X0425948Y0666006*
X0424882Y066574*
X0423836Y06654*
X0422817Y0664988*
X0421829Y0664507*
X0420877Y0663957*
X0419966Y0663342*
X04191Y0662666*
X0418283Y066193*
X0417519Y0661139*
X0416813Y0660297*
X0416167Y0659408*
X0415584Y0658476*
X0433159Y0650602D02*
D01*
X043315Y0650876*
X0433121Y065115*
X0433073Y065142*
X0433007Y0651687*
X0432922Y0651948*
X0432819Y0652203*
X0432699Y065245*
X0432561Y0652688*
X0432407Y0652916*
X0432238Y0653133*
X0432054Y0653337*
X0431857Y0653528*
X0431646Y0653704*
X0431424Y0653866*
X0431191Y0654011*
X0430948Y065414*
X0430697Y0654252*
X0430439Y0654346*
X0430175Y0654422*
X0429906Y0654479*
X0429634Y0654517*
X042936Y0654536*
X0429085*
X0428811Y0654517*
X0428539Y0654479*
X042827Y0654422*
X0428006Y0654346*
X0427748Y0654252*
X0427496Y065414*
X0427254Y0654011*
X0427021Y0653866*
X0426798Y0653704*
X0426588Y0653528*
X042639Y0653337*
X0426206Y0653133*
X0426037Y0652916*
X0425884Y0652688*
X0425746Y065245*
X0425626Y0652203*
X0425523Y0651948*
X0425438Y0651687*
X0425371Y065142*
X0425324Y065115*
X0425295Y0650876*
X0425285Y0650602*
X0425295Y0650327*
X0425324Y0650054*
X0425371Y0649783*
X0425438Y0649517*
X0425523Y0649255*
X0425626Y0649001*
X0425746Y0648754*
X0425884Y0648516*
X0426037Y0648288*
X0426206Y0648071*
X042639Y0647867*
X0426588Y0647676*
X0426798Y0647499*
X0427021Y0647338*
X0427254Y0647192*
X0427496Y0647063*
X0427748Y0646952*
X0428006Y0646858*
X042827Y0646782*
X0428539Y0646725*
X0428811Y0646686*
X0429085Y0646667*
X042936*
X0429634Y0646686*
X0429906Y0646725*
X0430175Y0646782*
X0430439Y0646858*
X0430697Y0646952*
X0430948Y0647063*
X0431191Y0647192*
X0431424Y0647338*
X0431646Y0647499*
X0431857Y0647676*
X0432054Y0647867*
X0432238Y0648071*
X0432407Y0648288*
X0432561Y0648516*
X0432699Y0648754*
X0432819Y0649001*
X0432922Y0649255*
X0433007Y0649517*
X0433073Y0649783*
X0433121Y0650054*
X043315Y0650327*
X0433159Y0650602*
Y0504933D02*
D01*
X043315Y0505207*
X0433121Y050548*
X0433073Y0505751*
X0433007Y0506018*
X0432922Y0506279*
X0432819Y0506534*
X0432699Y0506781*
X0432561Y0507019*
X0432407Y0507247*
X0432238Y0507463*
X0432054Y0507667*
X0431857Y0507858*
X0431646Y0508035*
X0431424Y0508196*
X0431191Y0508342*
X0430948Y0508471*
X0430697Y0508583*
X0430439Y0508677*
X0430175Y0508753*
X0429906Y050881*
X0429634Y0508848*
X042936Y0508867*
X0429085*
X0428811Y0508848*
X0428539Y050881*
X042827Y0508753*
X0428006Y0508677*
X0427748Y0508583*
X0427496Y0508471*
X0427254Y0508342*
X0427021Y0508196*
X0426798Y0508035*
X0426588Y0507858*
X042639Y0507667*
X0426206Y0507463*
X0426037Y0507247*
X0425884Y0507019*
X0425746Y0506781*
X0425626Y0506534*
X0425523Y0506279*
X0425438Y0506018*
X0425371Y0505751*
X0425324Y050548*
X0425295Y0505207*
X0425285Y0504933*
X0425295Y0504658*
X0425324Y0504385*
X0425371Y0504114*
X0425438Y0503847*
X0425523Y0503586*
X0425626Y0503331*
X0425746Y0503084*
X0425884Y0502846*
X0426037Y0502618*
X0426206Y0502402*
X042639Y0502198*
X0426588Y0502007*
X0426798Y050183*
X0427021Y0501669*
X0427254Y0501523*
X0427496Y0501394*
X0427748Y0501282*
X0428006Y0501188*
X042827Y0501113*
X0428539Y0501055*
X0428811Y0501017*
X0429085Y0500998*
X042936*
X0429634Y0501017*
X0429906Y0501055*
X0430175Y0501113*
X0430439Y0501188*
X0430697Y0501282*
X0430948Y0501394*
X0431191Y0501523*
X0431424Y0501669*
X0431646Y050183*
X0431857Y0502007*
X0432054Y0502198*
X0432238Y0502402*
X0432407Y0502618*
X0432561Y0502846*
X0432699Y0503084*
X0432819Y0503331*
X0432922Y0503586*
X0433007Y0503847*
X0433073Y0504114*
X0433121Y0504385*
X043315Y0504658*
X0433159Y0504933*
X0415584Y0497059D02*
D01*
X0416167Y0496126*
X0416813Y0495237*
X0417519Y0494395*
X0418283Y0493604*
X04191Y0492869*
X0419966Y0492192*
X0420877Y0491577*
X0421829Y0491028*
X0422817Y0490546*
X0423836Y0490134*
X0424882Y0489795*
X0425948Y0489529*
X0427031Y0489338*
X0428124Y0489223*
X0429222Y0489185*
X0430321Y0489223*
X0431414Y0489338*
X0432497Y0489529*
X0433563Y0489795*
X0434608Y0490134*
X0435628Y0490546*
X0436616Y0491028*
X0437568Y0491577*
X0438479Y0492192*
X0439345Y0492869*
X0440162Y0493604*
X0440925Y0494395*
X0441632Y0495237*
X0442278Y0496126*
X0442861Y0497059*
X0679222Y0582905D02*
D01*
X0679189Y0583866*
X0679088Y0584823*
X0678921Y058577*
X0678689Y0586703*
X0678391Y0587618*
X0678031Y058851*
X0677609Y0589374*
X0677129Y0590207*
X0676591Y0591004*
X0675999Y0591762*
X0675355Y0592477*
X0674663Y0593145*
X0673926Y0593763*
X0673148Y0594329*
X0672333Y0594838*
X0671483Y059529*
X0670605Y0595681*
X0669701Y059601*
X0668776Y0596275*
X0667836Y0596475*
X0666883Y0596609*
X0665924Y0596676*
X0664962*
X0664002Y0596609*
X066305Y0596475*
X0662109Y0596275*
X0661185Y059601*
X0660281Y0595681*
X0659402Y059529*
X0658553Y0594838*
X0657737Y0594329*
X0656959Y0593763*
X0656223Y0593145*
X0655531Y0592477*
X0654887Y0591762*
X0654295Y0591004*
X0653757Y0590207*
X0653276Y0589374*
X0652855Y058851*
X0652494Y0587618*
X0652197Y0586703*
X0651964Y058577*
X0651797Y0584823*
X0651697Y0583866*
X0651663Y0582905*
Y0572398D02*
D01*
X0651697Y0571436*
X0651797Y057048*
X0651964Y0569533*
X0652197Y0568599*
X0652494Y0567685*
X0652855Y0566793*
X0653276Y0565928*
X0653757Y0565095*
X0654295Y0564298*
X0654887Y056354*
X0655531Y0562825*
X0656223Y0562157*
X0656959Y0561539*
X0657737Y0560974*
X0658553Y0560464*
X0659402Y0560013*
X0660281Y0559621*
X0661185Y0559292*
X0662109Y0559027*
X066305Y0558827*
X0664002Y0558693*
X0664962Y0558626*
X0665924*
X0666883Y0558693*
X0667836Y0558827*
X0668776Y0559027*
X0669701Y0559292*
X0670605Y0559621*
X0671483Y0560013*
X0672333Y0560464*
X0673148Y0560974*
X0673926Y0561539*
X0674663Y0562157*
X0675355Y0562825*
X0675999Y056354*
X0676591Y0564298*
X0677129Y0565095*
X0677609Y0565928*
X0678031Y0566793*
X0678391Y0567685*
X0678689Y0568599*
X0678921Y0569533*
X0679088Y057048*
X0679189Y0571436*
X0679222Y0572398*
X0525357Y0631265D02*
D01*
X0526758Y0633628*
X0527992Y0636084*
X0529051Y063862*
X052993Y0641223*
X0530626Y0643882*
X0531135Y0646582*
X0531454Y0649312*
X0531582Y0652057*
X0531518Y0654804*
X0531263Y065754*
X0530817Y0660252*
X0530183Y0662925*
X0529365Y0665549*
X0528365Y0668108*
X0527189Y0670592*
X0525843Y0672988*
X0524333Y0675284*
X0522667Y0677469*
X0520852Y0679532*
X0518897Y0681464*
X0516813Y0683255*
X0515907Y0683959*
X0578174Y068351D02*
D01*
X0576071Y0681741*
X0574097Y067983*
X0572261Y0677785*
X0570571Y0675618*
X0569038Y0673338*
X0567667Y0670956*
X0566465Y0668485*
X0565439Y0665936*
X0564593Y0663321*
X0563931Y0660654*
X0563457Y0657947*
X0563173Y0655214*
X0563081Y0652468*
X056318Y0649722*
X056347Y0646989*
X0563951Y0644283*
X0564619Y0641618*
X0565471Y0639005*
X0566504Y0636459*
X0567712Y063399*
X0569088Y0631612*
X0569363Y0631179*
X0516491Y0471955D02*
D01*
X0518594Y0473724*
X0520568Y0475636*
X0522404Y047768*
X0524094Y0479848*
X0525628Y0482128*
X0526999Y0484509*
X05282Y048698*
X0529227Y048953*
X0530073Y0492144*
X0530734Y0494811*
X0531208Y0497518*
X0531492Y0500251*
X0531584Y0502998*
X0531485Y0505744*
X0531195Y0508477*
X0530714Y0511182*
X0530046Y0513848*
X0529194Y051646*
X0528161Y0519007*
X052727Y052087*
X0567397Y0520873D02*
D01*
X0566232Y0518384*
X0565243Y051582*
X0564436Y0513193*
X0563814Y0510517*
X0563381Y0507803*
X0563137Y0505066*
X0563085Y0502319*
X0563225Y0499574*
X0563556Y0496846*
X0564077Y0494148*
X0564784Y0491493*
X0565675Y0488893*
X0566745Y0486362*
X056799Y0483912*
X0569402Y0481554*
X0570975Y0479301*
X0572701Y0477163*
X0574572Y0475151*
X0576579Y0473274*
X0578712Y0471541*
X0578759Y0471507*
X0900254Y0578034D02*
D01*
X0900236Y0578547*
X0900182Y0579057*
X0900093Y0579562*
X0899969Y058006*
X0899811Y0580548*
X0899618Y0581023*
X0899394Y0581484*
X0899137Y0581928*
X089885Y0582354*
X0898535Y0582758*
X0898191Y0583139*
X0897822Y0583495*
X0897429Y0583825*
X0897014Y0584127*
X0896579Y0584398*
X0896127Y0584639*
X0895658Y0584848*
X0895176Y0585023*
X0894683Y0585165*
X0894181Y0585271*
X0893673Y0585343*
X0893161Y0585378*
X0892649*
X0892137Y0585343*
X0891629Y0585271*
X0891127Y0585165*
X0890634Y0585023*
X0890152Y0584848*
X0889684Y0584639*
X0889231Y0584398*
X0888796Y0584127*
X0888381Y0583825*
X0887988Y0583495*
X0887619Y0583139*
X0887275Y0582758*
X088696Y0582354*
X0886673Y0581928*
X0886416Y0581484*
X0886192Y0581023*
X0885999Y0580548*
X0885841Y058006*
X0885717Y0579562*
X0885628Y0579057*
X0885574Y0578547*
X0885556Y0578034*
X0885574Y0577522*
X0885628Y0577011*
X0885717Y0576506*
X0885841Y0576009*
X0885999Y0575521*
X0886192Y0575045*
X0886416Y0574584*
X0886673Y057414*
X088696Y0573715*
X0887275Y057331*
X0887619Y0572929*
X0887988Y0572573*
X0888381Y0572243*
X0888796Y0571942*
X0889231Y057167*
X0889684Y0571429*
X0890152Y057122*
X0890634Y0571045*
X0891127Y0570904*
X0891629Y0570797*
X0892137Y0570726*
X0892649Y057069*
X0893161*
X0893673Y0570726*
X0894181Y0570797*
X0894683Y0570904*
X0895176Y0571045*
X0895658Y057122*
X0896127Y0571429*
X0896579Y057167*
X0897014Y0571942*
X0897429Y0572243*
X0897822Y0572573*
X0898191Y0572929*
X0898535Y057331*
X089885Y0573715*
X0899137Y057414*
X0899394Y0574584*
X0899618Y0575045*
X0899811Y0575521*
X0899969Y0576009*
X0900093Y0576506*
X0900182Y0577011*
X0900236Y0577522*
X0900254Y0578034*
X089544Y0562475D02*
D01*
X089652Y056269*
X0897581Y056298*
X089862Y0563343*
X0899631Y0563777*
X0900609Y0564281*
X090155Y0564852*
X0902448Y0565487*
X09033Y0566183*
X0904102Y0566937*
X0904848Y0567745*
X0905537Y0568604*
X0906164Y0569508*
X0906727Y0570453*
X0907222Y0571436*
X0907647Y0572451*
X0908001Y0573493*
X0908281Y0574557*
X0908486Y0575638*
X0908615Y0576731*
X0908668Y057783*
X0908644Y057893*
X0908543Y0580025*
X0908366Y0581111*
X0908114Y0582182*
X0907787Y0583233*
X0907389Y0584259*
X0906919Y0585254*
X0906381Y0586214*
X0905778Y0587134*
X0905112Y058801*
X0904386Y0588837*
X0903605Y0589612*
X0902771Y059033*
X0901889Y0590988*
X0900964Y0591583*
X0899999Y0592112*
X0899Y0592573*
X0897971Y0592963*
X0896917Y059328*
X0895844Y0593522*
X0895453Y0593592*
X0762359Y0548D02*
D01*
X0762346Y0548358*
X0762309Y0548715*
X0762247Y0549069*
X076216Y0549417*
X0762049Y0549758*
X0761914Y0550091*
X0761757Y0550414*
X0761577Y0550725*
X0761377Y0551022*
X0761156Y0551305*
X0760916Y0551572*
X0760657Y0551821*
X0760382Y0552052*
X0760092Y0552263*
X0759787Y0552453*
X0759471Y0552622*
X0759143Y0552768*
X0758805Y0552891*
X075846Y055299*
X0758109Y0553064*
X0757754Y0553114*
X0757396Y0553139*
X0757037*
X0756678Y0553114*
X0756323Y0553064*
X0755972Y055299*
X0755627Y0552891*
X0755289Y0552768*
X0754962Y0552622*
X0754645Y0552453*
X075434Y0552263*
X075405Y0552052*
X0753775Y0551821*
X0753517Y0551572*
X0753276Y0551305*
X0753055Y0551022*
X0752855Y0550725*
X0752675Y0550414*
X0752518Y0550091*
X0752383Y0549758*
X0752272Y0549417*
X0752186Y0549069*
X0752123Y0548715*
X0752086Y0548358*
X0752073Y0548*
X0752086Y0547641*
X0752123Y0547284*
X0752186Y054693*
X0752272Y0546582*
X0752383Y0546241*
X0752518Y0545908*
X0752675Y0545585*
X0752855Y0545274*
X0753055Y0544977*
X0753276Y0544694*
X0753517Y0544427*
X0753775Y0544178*
X075405Y0543947*
X075434Y0543736*
X0754645Y0543546*
X0754962Y0543377*
X0755289Y0543231*
X0755627Y0543108*
X0755972Y0543009*
X0756323Y0542935*
X0756678Y0542885*
X0757037Y054286*
X0757396*
X0757754Y0542885*
X0758109Y0542935*
X075846Y0543009*
X0758805Y0543108*
X0759143Y0543231*
X0759471Y0543377*
X0759787Y0543546*
X0760092Y0543736*
X0760382Y0543947*
X0760657Y0544178*
X0760916Y0544427*
X0761156Y0544694*
X0761377Y0544977*
X0761577Y0545274*
X0761757Y0545585*
X0761914Y0545908*
X0762049Y0546241*
X076216Y0546582*
X0762247Y054693*
X0762309Y0547284*
X0762346Y0547641*
X0762359Y0548*
X0746611D02*
D01*
X0746598Y0548358*
X0746561Y0548715*
X0746499Y0549069*
X0746412Y0549417*
X0746301Y0549758*
X0746166Y0550091*
X0746009Y0550414*
X0745829Y0550725*
X0745629Y0551022*
X0745408Y0551305*
X0745168Y0551572*
X0744909Y0551821*
X0744634Y0552052*
X0744344Y0552263*
X0744039Y0552453*
X0743723Y0552622*
X0743395Y0552768*
X0743057Y0552891*
X0742712Y055299*
X0742361Y0553064*
X0742006Y0553114*
X0741647Y0553139*
X0741289*
X074093Y0553114*
X0740575Y0553064*
X0740224Y055299*
X0739879Y0552891*
X0739541Y0552768*
X0739213Y0552622*
X0738897Y0552453*
X0738592Y0552263*
X0738302Y0552052*
X0738027Y0551821*
X0737769Y0551572*
X0737528Y0551305*
X0737307Y0551022*
X0737107Y0550725*
X0736927Y0550414*
X073677Y0550091*
X0736635Y0549758*
X0736524Y0549417*
X0736437Y0549069*
X0736375Y0548715*
X0736338Y0548358*
X0736325Y0548*
X0736338Y0547641*
X0736375Y0547284*
X0736437Y054693*
X0736524Y0546582*
X0736635Y0546241*
X073677Y0545908*
X0736927Y0545585*
X0737107Y0545274*
X0737307Y0544977*
X0737528Y0544694*
X0737769Y0544427*
X0738027Y0544178*
X0738302Y0543947*
X0738592Y0543736*
X0738897Y0543546*
X0739213Y0543377*
X0739541Y0543231*
X0739879Y0543108*
X0740224Y0543009*
X0740575Y0542935*
X074093Y0542885*
X0741289Y054286*
X0741647*
X0742006Y0542885*
X0742361Y0542935*
X0742712Y0543009*
X0743057Y0543108*
X0743395Y0543231*
X0743723Y0543377*
X0744039Y0543546*
X0744344Y0543736*
X0744634Y0543947*
X0744909Y0544178*
X0745168Y0544427*
X0745408Y0544694*
X0745629Y0544977*
X0745829Y0545274*
X0746009Y0545585*
X0746166Y0545908*
X0746301Y0546241*
X0746412Y0546582*
X0746499Y054693*
X0746561Y0547284*
X0746598Y0547641*
X0746611Y0548*
X0730863D02*
D01*
X073085Y0548358*
X0730813Y0548715*
X0730751Y0549069*
X0730664Y0549417*
X0730553Y0549758*
X0730418Y0550091*
X0730261Y0550414*
X0730081Y0550725*
X0729881Y0551022*
X072966Y0551305*
X0729419Y0551572*
X0729161Y0551821*
X0728886Y0552052*
X0728596Y0552263*
X0728291Y0552453*
X0727974Y0552622*
X0727647Y0552768*
X0727309Y0552891*
X0726964Y055299*
X0726613Y0553064*
X0726258Y0553114*
X0725899Y0553139*
X072554*
X0725182Y0553114*
X0724827Y0553064*
X0724476Y055299*
X0724131Y0552891*
X0723793Y0552768*
X0723465Y0552622*
X0723149Y0552453*
X0722844Y0552263*
X0722554Y0552052*
X0722279Y0551821*
X072202Y0551572*
X072178Y0551305*
X0721559Y0551022*
X0721359Y0550725*
X0721179Y0550414*
X0721022Y0550091*
X0720887Y0549758*
X0720776Y0549417*
X0720689Y0549069*
X0720627Y0548715*
X072059Y0548358*
X0720577Y0548*
X072059Y0547641*
X0720627Y0547284*
X0720689Y054693*
X0720776Y0546582*
X0720887Y0546241*
X0721022Y0545908*
X0721179Y0545585*
X0721359Y0545274*
X0721559Y0544977*
X072178Y0544694*
X072202Y0544427*
X0722279Y0544178*
X0722554Y0543947*
X0722844Y0543736*
X0723149Y0543546*
X0723465Y0543377*
X0723793Y0543231*
X0724131Y0543108*
X0724476Y0543009*
X0724827Y0542935*
X0725182Y0542885*
X072554Y054286*
X0725899*
X0726258Y0542885*
X0726613Y0542935*
X0726964Y0543009*
X0727309Y0543108*
X0727647Y0543231*
X0727974Y0543377*
X0728291Y0543546*
X0728596Y0543736*
X0728886Y0543947*
X0729161Y0544178*
X0729419Y0544427*
X072966Y0544694*
X0729881Y0544977*
X0730081Y0545274*
X0730261Y0545585*
X0730418Y0545908*
X0730553Y0546241*
X0730664Y0546582*
X0730751Y054693*
X0730813Y0547284*
X073085Y0547641*
X0730863Y0548*
X0715115D02*
D01*
X0715102Y0548358*
X0715065Y0548715*
X0715002Y0549069*
X0714916Y0549417*
X0714805Y0549758*
X071467Y0550091*
X0714513Y0550414*
X0714333Y0550725*
X0714133Y0551022*
X0713912Y0551305*
X0713671Y0551572*
X0713413Y0551821*
X0713138Y0552052*
X0712848Y0552263*
X0712543Y0552453*
X0712226Y0552622*
X0711899Y0552768*
X0711561Y0552891*
X0711216Y055299*
X0710865Y0553064*
X071051Y0553114*
X0710151Y0553139*
X0709792*
X0709434Y0553114*
X0709079Y0553064*
X0708728Y055299*
X0708383Y0552891*
X0708045Y0552768*
X0707717Y0552622*
X07074Y0552453*
X0707096Y0552263*
X0706806Y0552052*
X0706531Y0551821*
X0706272Y0551572*
X0706032Y0551305*
X0705811Y0551022*
X0705611Y0550725*
X0705431Y0550414*
X0705274Y0550091*
X0705139Y0549758*
X0705028Y0549417*
X0704941Y0549069*
X0704879Y0548715*
X0704842Y0548358*
X0704829Y0548*
X0704842Y0547641*
X0704879Y0547284*
X0704941Y054693*
X0705028Y0546582*
X0705139Y0546241*
X0705274Y0545908*
X0705431Y0545585*
X0705611Y0545274*
X0705811Y0544977*
X0706032Y0544694*
X0706272Y0544427*
X0706531Y0544178*
X0706806Y0543947*
X0707096Y0543736*
X07074Y0543546*
X0707717Y0543377*
X0708045Y0543231*
X0708383Y0543108*
X0708728Y0543009*
X0709079Y0542935*
X0709434Y0542885*
X0709792Y054286*
X0710151*
X071051Y0542885*
X0710865Y0542935*
X0711216Y0543009*
X0711561Y0543108*
X0711899Y0543231*
X0712226Y0543377*
X0712543Y0543546*
X0712848Y0543736*
X0713138Y0543947*
X0713413Y0544178*
X0713671Y0544427*
X0713912Y0544694*
X0714133Y0544977*
X0714333Y0545274*
X0714513Y0545585*
X071467Y0545908*
X0714805Y0546241*
X0714916Y0546582*
X0715002Y054693*
X0715065Y0547284*
X0715102Y0547641*
X0715115Y0548*
X0702892Y0589628D02*
D01*
X0703167Y0589638*
X070344Y0589667*
X0703711Y0589714*
X0703978Y0589781*
X0704239Y0589866*
X0704494Y0589969*
X0704741Y0590089*
X0704979Y0590226*
X0705207Y059038*
X0705423Y0590549*
X0705627Y0590733*
X0705818Y0590931*
X0705995Y0591141*
X0706156Y0591364*
X0706302Y0591597*
X0706431Y0591839*
X0706543Y059209*
X0706637Y0592349*
X0706712Y0592613*
X070677Y0592882*
X0706808Y0593154*
X0706827Y0593428*
Y0593703*
X0706808Y0593977*
X070677Y0594249*
X0706712Y0594518*
X0706637Y0594782*
X0706543Y059504*
X0706431Y0595291*
X0706302Y0595534*
X0706156Y0595767*
X0705995Y0595989*
X0705818Y05962*
X0705627Y0596397*
X0705423Y0596581*
X0705207Y059675*
X0704979Y0596904*
X0704741Y0597041*
X0704494Y0597162*
X0704239Y0597265*
X0703978Y059735*
X0703711Y0597416*
X070344Y0597464*
X0703167Y0597493*
X0702892Y0597502*
X0703037Y0557851D02*
D01*
X0703311Y0557861*
X0703584Y055789*
X0703855Y0557938*
X0704122Y0558004*
X0704383Y0558089*
X0704638Y0558192*
X0704885Y0558312*
X0705123Y055845*
X0705351Y0558603*
X0705567Y0558773*
X0705771Y0558956*
X0705962Y0559154*
X0706139Y0559365*
X07063Y0559587*
X0706446Y055982*
X0706575Y0560063*
X0706687Y0560314*
X0706781Y0560572*
X0706857Y0560836*
X0706914Y0561105*
X0706952Y0561377*
X0706971Y0561651*
Y0561926*
X0706952Y05622*
X0706914Y0562472*
X0706857Y0562741*
X0706781Y0563005*
X0706687Y0563263*
X0706575Y0563514*
X0706446Y0563757*
X07063Y056399*
X0706139Y0564212*
X0705962Y0564423*
X0705771Y0564621*
X0705567Y0564804*
X0705351Y0564974*
X0705123Y0565127*
X0704885Y0565265*
X0704638Y0565385*
X0704383Y0565488*
X0704122Y0565573*
X0703855Y0565639*
X0703584Y0565687*
X0703311Y0565716*
X0703037Y0565725*
X0627849Y0597655D02*
D01*
X0627574Y0597645*
X0627301Y0597617*
X0627031Y0597569*
X0626764Y0597502*
X0626503Y0597418*
X0626248Y0597315*
X0626001Y0597194*
X0625763Y0597057*
X0625535Y0596903*
X0625318Y0596734*
X0625114Y059655*
X0624923Y0596352*
X0624747Y0596142*
X0624585Y059592*
X062444Y0595687*
X0624311Y0595444*
X0624199Y0595193*
X0624105Y0594935*
X0624029Y059467*
X0623972Y0594402*
X0623934Y059413*
X0623914Y0593855*
Y0593581*
X0623934Y0593306*
X0623972Y0593034*
X0624029Y0592766*
X0624105Y0592501*
X0624199Y0592243*
X0624311Y0591992*
X062444Y059175*
X0624585Y0591516*
X0624747Y0591294*
X0624923Y0591084*
X0625114Y0590886*
X0625318Y0590702*
X0625535Y0590533*
X0625763Y0590379*
X0626001Y0590242*
X0626248Y0590121*
X0626503Y0590018*
X0626764Y0589934*
X0627031Y0589867*
X0627301Y0589819*
X0627574Y0589791*
X0627849Y0589781*
X0627993Y0565878D02*
D01*
X0627719Y0565868*
X0627445Y056584*
X0627175Y0565792*
X0626908Y0565725*
X0626647Y056564*
X0626392Y0565537*
X0626145Y0565417*
X0625907Y056528*
X0625679Y0565126*
X0625463Y0564957*
X0625258Y0564773*
X0625067Y0564575*
X0624891Y0564365*
X0624729Y0564142*
X0624584Y0563909*
X0624455Y0563667*
X0624343Y0563416*
X0624249Y0563157*
X0624173Y0562893*
X0624116Y0562624*
X0624078Y0562352*
X0624059Y0562078*
Y0561803*
X0624078Y0561529*
X0624116Y0561257*
X0624173Y0560988*
X0624249Y0560724*
X0624343Y0560466*
X0624455Y0560215*
X0624584Y0559972*
X0624729Y0559739*
X0624891Y0559517*
X0625067Y0559306*
X0625258Y0559109*
X0625463Y0558925*
X0625679Y0558756*
X0625907Y0558602*
X0626145Y0558465*
X0626392Y0558344*
X0626647Y0558241*
X0626908Y0558156*
X0627175Y055809*
X0627445Y0558042*
X0627719Y0558013*
X0627993Y0558004*
X06399Y0589628D02*
D01*
X0640175Y0589638*
X0640448Y0589667*
X0640719Y0589714*
X0640985Y0589781*
X0641247Y0589866*
X0641502Y0589969*
X0641749Y0590089*
X0641987Y0590226*
X0642214Y059038*
X0642431Y0590549*
X0642635Y0590733*
X0642826Y0590931*
X0643003Y0591141*
X0643164Y0591364*
X064331Y0591597*
X0643439Y0591839*
X0643551Y059209*
X0643645Y0592349*
X064372Y0592613*
X0643777Y0592882*
X0643816Y0593154*
X0643835Y0593428*
Y0593703*
X0643816Y0593977*
X0643777Y0594249*
X064372Y0594518*
X0643645Y0594782*
X0643551Y059504*
X0643439Y0595291*
X064331Y0595534*
X0643164Y0595767*
X0643003Y0595989*
X0642826Y05962*
X0642635Y0596397*
X0642431Y0596581*
X0642214Y059675*
X0641987Y0596904*
X0641749Y0597041*
X0641502Y0597162*
X0641247Y0597265*
X0640985Y059735*
X0640719Y0597416*
X0640448Y0597464*
X0640175Y0597493*
X06399Y0597502*
X0640044Y0557851D02*
D01*
X0640319Y0557861*
X0640592Y055789*
X0640863Y0557938*
X064113Y0558004*
X0641391Y0558089*
X0641646Y0558192*
X0641893Y0558312*
X0642131Y055845*
X0642358Y0558603*
X0642575Y0558773*
X0642779Y0558956*
X064297Y0559154*
X0643147Y0559365*
X0643308Y0559587*
X0643454Y055982*
X0643583Y0560063*
X0643695Y0560314*
X0643789Y0560572*
X0643864Y0560836*
X0643922Y0561105*
X064396Y0561377*
X0643979Y0561651*
Y0561926*
X064396Y05622*
X0643922Y0562472*
X0643864Y0562741*
X0643789Y0563005*
X0643695Y0563263*
X0643583Y0563514*
X0643454Y0563757*
X0643308Y056399*
X0643147Y0564212*
X064297Y0564423*
X0642779Y0564621*
X0642575Y0564804*
X0642358Y0564974*
X0642131Y0565127*
X0641893Y0565265*
X0641646Y0565385*
X0641391Y0565488*
X064113Y0565573*
X0640863Y0565639*
X0640592Y0565687*
X0640319Y0565716*
X0640044Y0565725*
X0690985Y0565878D02*
D01*
X0690711Y0565868*
X0690437Y056584*
X0690167Y0565792*
X06899Y0565725*
X0689639Y056564*
X0689384Y0565537*
X0689137Y0565417*
X0688899Y056528*
X0688671Y0565126*
X0688455Y0564957*
X068825Y0564773*
X068806Y0564575*
X0687883Y0564365*
X0687721Y0564142*
X0687576Y0563909*
X0687447Y0563667*
X0687335Y0563416*
X0687241Y0563157*
X0687165Y0562893*
X0687108Y0562624*
X068707Y0562352*
X0687051Y0562078*
Y0561803*
X068707Y0561529*
X0687108Y0561257*
X0687165Y0560988*
X0687241Y0560724*
X0687335Y0560466*
X0687447Y0560215*
X0687576Y0559972*
X0687721Y0559739*
X0687883Y0559517*
X068806Y0559306*
X068825Y0559109*
X0688455Y0558925*
X0688671Y0558756*
X0688899Y0558602*
X0689137Y0558465*
X0689384Y0558344*
X0689639Y0558241*
X06899Y0558156*
X0690167Y055809*
X0690437Y0558042*
X0690711Y0558013*
X0690985Y0558004*
X0690841Y0597655D02*
D01*
X0690567Y0597645*
X0690293Y0597617*
X0690023Y0597569*
X0689756Y0597502*
X0689495Y0597418*
X068924Y0597315*
X0688993Y0597194*
X0688755Y0597057*
X0688527Y0596903*
X0688311Y0596734*
X0688106Y059655*
X0687915Y0596352*
X0687739Y0596142*
X0687577Y059592*
X0687432Y0595687*
X0687303Y0595444*
X0687191Y0595193*
X0687097Y0594935*
X0687021Y059467*
X0686964Y0594402*
X0686926Y059413*
X0686907Y0593855*
Y0593581*
X0686926Y0593306*
X0686964Y0593034*
X0687021Y0592766*
X0687097Y0592501*
X0687191Y0592243*
X0687303Y0591992*
X0687432Y059175*
X0687577Y0591516*
X0687739Y0591294*
X0687915Y0591084*
X0688106Y0590886*
X0688311Y0590702*
X0688527Y0590533*
X0688755Y0590379*
X0688993Y0590242*
X068924Y0590121*
X0689495Y0590018*
X0689756Y0589934*
X0690023Y0589867*
X0690293Y0589819*
X0690567Y0589791*
X0690841Y0589781*
X0552707Y0612907D02*
D01*
X0552717Y0612633*
X0552746Y0612359*
X0552793Y0612089*
X055286Y0611822*
X0552945Y0611561*
X0553048Y0611306*
X0553168Y0611059*
X0553306Y0610821*
X0553459Y0610593*
X0553628Y0610377*
X0553812Y0610172*
X055401Y0609982*
X0554221Y0609805*
X0554443Y0609643*
X0554676Y0609498*
X0554919Y0609369*
X055517Y0609257*
X0555428Y0609163*
X0555692Y0609087*
X0555961Y060903*
X0556233Y0608992*
X0556507Y0608973*
X0556782*
X055686Y0608976*
X0570483D02*
D01*
X0570758Y0608986*
X0571031Y0609015*
X0571302Y0609062*
X0571569Y0609129*
X057183Y0609214*
X0572085Y0609317*
X0572332Y0609437*
X057257Y0609575*
X0572797Y0609728*
X0573014Y0609897*
X0573218Y0610081*
X0573409Y0610279*
X0573586Y0610489*
X0573747Y0610712*
X0573893Y0610945*
X0574022Y0611187*
X0574134Y0611438*
X0574228Y0611697*
X0574303Y0611961*
X0574361Y061223*
X0574399Y0612502*
X0574418Y0612776*
Y0613051*
X0574414Y0613128*
X0537825Y0609144D02*
D01*
X05381Y0609154*
X0538373Y0609182*
X0538644Y060923*
X053891Y0609297*
X0539172Y0609381*
X0539426Y0609484*
X0539673Y0609605*
X0539911Y0609742*
X0540139Y0609896*
X0540356Y0610065*
X054056Y0610249*
X0540751Y0610447*
X0540927Y0610657*
X0541089Y0610879*
X0541235Y0611112*
X0541364Y0611355*
X0541475Y0611606*
X0541569Y0611864*
X0541645Y0612129*
X0541702Y0612397*
X0541741Y0612669*
X054176Y0612944*
X0541762Y0613081*
X0520264D02*
D01*
X0520274Y0612806*
X0520303Y0612533*
X052035Y0612262*
X0520417Y0611996*
X0520502Y0611734*
X0520605Y061148*
X0520725Y0611233*
X0520863Y0610995*
X0521016Y0610767*
X0521186Y061055*
X0521369Y0610346*
X0521567Y0610155*
X0521778Y0609979*
X0522Y0609817*
X0522233Y0609671*
X0522476Y0609542*
X0522727Y0609431*
X0522985Y0609337*
X0523249Y0609261*
X0523518Y0609204*
X052379Y0609166*
X0524064Y0609146*
X0524201Y0609144*
X0574401Y0542425D02*
D01*
X0574391Y05427*
X0574362Y0542973*
X0574315Y0543244*
X0574248Y0543511*
X0574163Y0543772*
X057406Y0544027*
X057394Y0544274*
X0573802Y0544512*
X0573649Y054474*
X057348Y0544956*
X0573296Y054516*
X0573098Y0545351*
X0572888Y0545528*
X0572665Y0545689*
X0572432Y0545835*
X057219Y0545964*
X0571939Y0546076*
X057168Y054617*
X0571416Y0546246*
X0571147Y0546303*
X0570875Y0546341*
X0570601Y054636*
X0570464Y0546362*
X0524181Y054653D02*
D01*
X0523907Y0546521*
X0523633Y0546492*
X0523363Y0546444*
X0523096Y0546378*
X0522835Y0546293*
X052258Y054619*
X0522333Y0546069*
X0522095Y0545932*
X0521867Y0545778*
X0521651Y0545609*
X0521447Y0545425*
X0521256Y0545228*
X0521079Y0545017*
X0520917Y0544795*
X0520772Y0544562*
X0520643Y0544319*
X0520531Y0544068*
X0520437Y054381*
X0520361Y0543546*
X0520304Y0543277*
X0520266Y0543005*
X0520247Y0542731*
Y0542456*
X052025Y0542378*
X0694183Y0530344D02*
Y0534854D01*
X0679081Y0497059D02*
X0694183Y0530344D01*
X06405Y0534854D02*
X0694183D01*
X06405D02*
X0694183D01*
X06405Y0522203D02*
X0651805Y0497059D01*
X06405Y0522203D02*
X0651805Y0497059D01*
X06405Y0522203D02*
Y0534854D01*
Y0522203D02*
Y0534854D01*
X0694046Y0620681D02*
Y062519D01*
X0679081Y0658476D02*
X0694046Y062519D01*
X06405Y0633559D02*
X0651805Y0658476D01*
X06405Y0620681D02*
Y0633559D01*
Y0620681D02*
X0694046D01*
X0455Y0621848D02*
Y0631476D01*
X04535Y0520507D02*
Y0532885D01*
Y0520507D02*
Y0532885D01*
X0442861Y0658476D02*
X0455Y0631476D01*
X0402588Y0532885D02*
X04535D01*
X0400482Y0621848D02*
X0455D01*
X0400619Y0532885D02*
X04535D01*
X0400482Y062519D02*
X0415584Y0658476D01*
X0400619Y0530344D02*
Y0532885D01*
X0400482Y0621848D02*
Y062519D01*
X0400619Y0530344D02*
X0415584Y0497059D01*
X0442861D02*
X04535Y0520507D01*
X0442861Y0497059D02*
X04535Y0520507D01*
X0679222Y0572398D02*
Y0582905D01*
X0651663Y0572398D02*
Y0582905D01*
X0525503Y0631182D02*
X0569363D01*
X0516355Y068351D02*
X0578174D01*
X0515907Y0683959D02*
X0516355Y068351D01*
X057831Y0471955D02*
X0578759Y0471507D01*
X0516491Y0471955D02*
X057831D01*
X0527287Y0520881D02*
X0547333D01*
X0567381Y0520881*
X0547333Y0520881D02*
X0567381Y0520881D01*
X0876986Y0544021D02*
Y0611486D01*
X0894883Y0593589*
X0895393*
X0895412Y059357*
X0876982Y0544017D02*
X089544Y0562475D01*
X0868759Y0537202D02*
Y0618304D01*
X0697726D02*
X0868759D01*
X0697726Y0537202D02*
X0868759D01*
X0398514Y0615548D02*
Y0539958D01*
X0461506Y0537202D02*
Y0569D01*
Y0595006D02*
Y0618304D01*
X0457962Y0595006D02*
Y0615548D01*
Y0539958D02*
Y0560501D01*
X0461506Y0569D02*
Y0595006D01*
X0443D02*
X0457962D01*
X0443Y0560501D02*
X0457962D01*
X0443D02*
Y0595006D01*
X0841622Y054337D02*
X0867015D01*
X0841622D02*
Y0614629D01*
X0867015Y054337D02*
Y0614629D01*
X0841622D02*
X0867015D01*
X0703037Y0565725D02*
Y0589484D01*
X0697726Y0537202D02*
Y0557855D01*
Y0597506D02*
Y0618304D01*
Y0597506D02*
X0702892Y0597502D01*
X0697726Y0557855D02*
X0703037Y0557851D01*
X0627849Y0597655D02*
X0633159Y0597651D01*
X0627993Y0558004D02*
X0633159Y0558D01*
Y0537202D02*
Y0558D01*
Y0597651D02*
Y0618304D01*
X0627849Y0566022D02*
Y0589781D01*
X0640044Y0565725D02*
Y0589484D01*
X0637Y0539958D02*
Y0557853D01*
X0636583Y0597505D02*
Y0615549D01*
Y0597505D02*
X06399Y0597502D01*
X0637Y0557853D02*
X0640044Y0557851D01*
X0690841Y0566022D02*
Y0589781D01*
X0694Y0597653D02*
Y0615549D01*
Y0539958D02*
Y0558002D01*
X0690985Y0558004D02*
X0694Y0558002D01*
X0690841Y0597655D02*
X0694Y0597653D01*
X0637Y0539958D02*
X0694D01*
X0636583Y0615549D02*
X0694D01*
X0552707Y0612907D02*
X0552711Y0618218D01*
X055686Y0608976D02*
X0570483D01*
X0574414Y0613128D02*
X0574418Y0618294D01*
X0547333Y0618305D02*
X0552624D01*
X0574505Y0618208D02*
X0633159D01*
X0524201Y0609144D02*
X0537825D01*
X0461506Y0618391D02*
X0520268D01*
X0541896Y0618305D02*
X0547333D01*
X0520264Y0613081D02*
X0520268Y0618391D01*
X0541805Y0613225D02*
X0541809Y0618391D01*
X0574397Y0537115D02*
X0574401Y0542425D01*
X055684Y0546362D02*
X0570464D01*
X0520247Y0537212D02*
X052025Y0542378D01*
X0524181Y054653D02*
X0561D01*
X0574397Y0537115D02*
X0633072D01*
X0461516Y0537212D02*
X0520247D01*
X0398514Y0615548D02*
X0457962D01*
X0398514Y0539958D02*
X0457962D01*
G54D11*
X074359Y063659D02*
Y0638689D01*
X074464Y0639738*
X0745689Y0638689*
Y063659*
Y0638164*
X074359*
X0746738Y063659D02*
X0747788D01*
X0747263*
Y0639738*
X0746738*
X0749362Y0638689D02*
Y0637115D01*
X0749887Y063659*
X0751462*
Y0638689*
X0752511Y063659D02*
Y0638689D01*
X0753036*
X0753561Y0638164*
Y063659*
Y0638164*
X0754085Y0638689*
X075461Y0638164*
Y063659*
X075566D02*
X0756709D01*
X0756185*
Y0638689*
X075566*
X0758283Y063659D02*
Y0638689D01*
X0759858*
X0760383Y0638164*
Y063659*
X0761432D02*
X0762482D01*
X0761957*
Y0638689*
X0761432*
X0764056D02*
Y0637115D01*
X0764581Y063659*
X0766155*
Y0638689*
X0767205Y063659D02*
Y0638689D01*
X0767729*
X0768254Y0638164*
Y063659*
Y0638164*
X0768779Y0638689*
X0769303Y0638164*
Y063659*
X0773501Y0639738D02*
Y063659D01*
X0775076*
X0775601Y0637115*
Y063764*
X0775076Y0638164*
X0773501*
X0775076*
X0775601Y0638689*
Y0639214*
X0775076Y0639738*
X0773501*
X0778225D02*
X0777175D01*
X077665Y0639214*
Y0637115*
X0777175Y063659*
X0778225*
X0778749Y0637115*
Y0639214*
X0778225Y0639738*
X0779799D02*
X0781898D01*
X0780848*
Y063659*
X0782948Y0639738D02*
X0785046D01*
X0783997*
Y063659*
X078767Y0639738D02*
X0786621D01*
X0786096Y0639214*
Y0637115*
X0786621Y063659*
X078767*
X0788195Y0637115*
Y0639214*
X078767Y0639738*
X0789245Y063659D02*
Y0639738D01*
X0790294Y0638689*
X0791344Y0639738*
Y063659*
X0797641Y0639214D02*
X0797116Y0639738D01*
X0796066*
X0795542Y0639214*
Y0638689*
X0796066Y0638164*
X0797116*
X0797641Y063764*
Y0637115*
X0797116Y063659*
X0796066*
X0795542Y0637115*
X079869Y0639738D02*
X0800789D01*
X079974*
Y063659*
X0801839Y0639738D02*
X0802888D01*
X0802364*
Y063659*
X0801839*
X0802888*
X0806562Y0639738D02*
X0804463D01*
Y0638164*
X0805512*
X0804463*
Y063659*
X0809711Y0639738D02*
X0807611D01*
Y0638164*
X0808661*
X0807611*
Y063659*
X0812859Y0639738D02*
X081076D01*
Y063659*
X0812859*
X081076Y0638164D02*
X0811809D01*
X0813909Y063659D02*
Y0639738D01*
X0816008Y063659*
Y0639738*
X0819156D02*
X0817057D01*
Y063659*
X0819156*
X0817057Y0638164D02*
X0818107D01*
X0820206Y063659D02*
Y0639738D01*
X082178*
X0822305Y0639214*
Y0638164*
X082178Y063764*
X0820206*
X0821255D02*
X0822305Y063659D01*
X0825453Y0639214D02*
X0824929Y0639738D01*
X0823879*
X0823354Y0639214*
Y0638689*
X0823879Y0638164*
X0824929*
X0825453Y063764*
Y0637115*
X0824929Y063659*
X0823879*
X0823354Y0637115*
M02*