%FSTAX25Y25*%
%MOIN*%
%SFA1B1*%

%IPPOS*%
%ADD43R,1.732178X0.030697*%
%ADD44R,0.100000X0.237586*%
%ADD45R,0.021008X0.201004*%
%ADD46R,0.019902X0.196118*%
%ADD48R,0.018531X0.196118*%
%ADD49R,0.016976X0.201004*%
%ADD50R,0.569708X0.031283*%
%ADD51R,0.567822X0.023850*%
%ADD52R,0.592979X0.031378*%
%ADD53R,0.601306X0.037791*%
%ADD54R,0.597554X0.027272*%
%ADD55R,0.597554X0.028732*%
%ADD56R,0.597554X0.027567*%
%ADD57R,0.597554X0.029276*%
%ADD58R,0.019858X0.212523*%
%ADD59R,0.022839X0.215515*%
%ADD81C,0.098425*%
%ADD82C,0.244094*%
%ADD83C,0.106299*%
%ADD84O,0.062992X0.035433*%
%ADD85C,0.019685*%
%ADD99R,0.027559X0.028543*%
%ADD100R,0.054504X0.124122*%
%ADD101R,0.059350X0.120153*%
%ADD102R,0.057968X0.117031*%
%ADD103R,0.054504X0.116421*%
%ADD104R,0.107547X0.118909*%
%LNpcb1-1*%
%LPD*%
G36*
X087637Y0612102D02*
Y0543482D01*
X0876417Y0543435*
X0870667Y0537685*
X0870167Y0537892*
Y0617651*
X0870629Y0617842*
X087637Y0612102*
G37*
G54D43*
X0783558Y0619287D03*
X0783411Y053622D03*
G54D44*
X0697Y0577901D03*
X0634Y0577605D03*
G54D45*
X0634949Y0547803D03*
G54D46*
X0634785Y060704D03*
G54D48*
X0695726Y0607456D03*
G54D49*
X069589Y0547805D03*
G54D50*
X0665865Y0537564D03*
G54D51*
X0665329Y0618307D03*
G54D52*
X0427851Y0618068D03*
G54D53*
X0428065Y0537213D03*
G54D54*
X0490654Y0620221D03*
G54D55*
X0603622Y0620318D03*
G54D56*
X0603622Y0535318D03*
G54D57*
X0490654Y0535163D03*
G54D58*
X0459635Y0549826D03*
G54D59*
X0459576Y0605782D03*
G54D81*
X0420455Y0578035D03*
G54D82*
X0892905Y0578034D03*
G54D83*
X0492214Y0502895D03*
X0602451Y050295D03*
Y065257D03*
X0492214D03*
X0665443Y0650588D03*
X0429222Y0504918D03*
Y0650588D03*
X0665443Y0504918D03*
G54D84*
X0471685Y0590745D03*
Y0564761D03*
G54D85*
X049755Y0552918D03*
Y0557249D03*
X0501881Y0552918D03*
Y0557249D03*
X0568072Y0566519D03*
X0572403D03*
X0568072Y0562188D03*
X0572403D03*
X0595986Y056524D03*
Y0560909D03*
X0591655Y056524D03*
Y0560909D03*
X0597191Y0602472D03*
Y0598141D03*
X059286Y0602472D03*
Y0598141D03*
X0502803Y0594309D03*
Y0589978D03*
X0498472Y0594309D03*
Y0589978D03*
X0572487Y059419D03*
X0568156D03*
X0572487Y0598521D03*
X0568156D03*
X0522178Y0561275D03*
X0526509D03*
X0522178Y0556945D03*
X0526509D03*
Y0588699D03*
X0522178D03*
X0526509Y0593029D03*
X0522178D03*
G54D99*
X0668199Y0584102D03*
X0662687D03*
Y057987D03*
Y0575637D03*
Y0571405D03*
X0668199D03*
Y0575637D03*
Y057987D03*
G54D100*
X0530874Y0531044D03*
G54D101*
X0563721Y0624507D03*
G54D102*
X0531185Y0624713D03*
G54D103*
X0563657Y053108D03*
G54D104*
X054733Y0625042D03*
M02*