%FSTAX25Y25*%
%MOIN*%
%SFA1B1*%

%IPPOS*%
%ADD15C,0.010000*%
%ADD16R,3.036604X0.782388*%
%ADD17O,0.005905X0.023622*%
%ADD18O,0.023622X0.005905*%
%ADD19R,0.098425X0.098425*%
%ADD20R,0.064960X0.064960*%
%ADD21R,0.003937X0.016929*%
%ADD22R,0.016929X0.003937*%
%ADD23R,0.013780X0.011811*%
%ADD24R,0.011811X0.013780*%
%ADD25R,0.062992X0.092520*%
%ADD26R,0.031496X0.019685*%
%ADD27C,0.031496*%
%ADD28R,0.092520X0.062992*%
%ADD29C,0.070866*%
%ADD30R,0.043307X0.015748*%
%ADD31R,0.015748X0.035433*%
%ADD32C,0.051181*%
%ADD33R,0.047244X0.055118*%
%ADD34R,0.066929X0.066929*%
%ADD35R,0.045275X0.007874*%
%ADD36R,0.035433X0.078740*%
%ADD37R,0.078740X0.035433*%
%ADD38R,0.052362X0.052362*%
%ADD39R,0.032283X0.116929*%
%ADD40R,0.055118X0.023622*%
%ADD41R,0.009843X0.026575*%
%ADD42R,0.022638X0.009843*%
%LNpcb1-1*%
%LPD*%
G36*
X0666858Y0599912D02*
X0669026Y0599588D01*
X0671135Y0598988*
X0673148Y059812*
X0675033Y0597*
X0676758Y0595647*
X0678294Y0594082*
X0679614Y0592332*
X0680699Y0590426*
X0681528Y0588397*
X0682089Y0586277*
X0682372Y0584103*
Y0583007*
Y05725*
Y0571399*
X0682087Y0569217*
X0681522Y0567091*
X0680687Y0565055*
X0679595Y0563144*
X0678265Y0561391*
X067672Y0559825*
X0674984Y0558472*
X0673088Y0557355*
X0671064Y0556493*
X0668945Y05559*
X0666767Y0555587*
X0664566Y0555557*
X0662381Y0555813*
X0660247Y055635*
X06582Y0557158*
X0656276Y0558225*
X0654505Y0559531*
X0652919Y0561056*
X0651543Y0562773*
X0650401Y0564654*
X0649512Y0566667*
X0648891Y0568778*
X0648549Y0570952*
X064852Y0572051*
X0648525Y0583645*
X0648567Y058474*
X0648931Y0586902*
X0649572Y0588999*
X0650477Y0590996*
X0651633Y0592859*
X0653018Y0594558*
X0654612Y0596064*
X0656387Y0597352*
X0658312Y05984*
X0660357Y0599191*
X0662487Y0599712*
X0664666Y0599954*
X0666858Y0599912*
G37*
G54D15*
X0682372Y0583007D02*
D01*
X0682331Y0584188*
X0682207Y0585363*
X0682002Y0586527*
X0681716Y0587673*
X0681351Y0588797*
X0680908Y0589893*
X068039Y0590955*
X06798Y0591978*
X0679139Y0592958*
X0678411Y0593889*
X0677621Y0594767*
X0676771Y0595588*
X0675865Y0596347*
X0674909Y0597042*
X0673907Y0597668*
X0672864Y0598223*
X0671785Y0598703*
X0670674Y0599108*
X0669538Y0599433*
X0668383Y0599679*
X0667212Y0599843*
X0666034Y0599926*
X0664852*
X0663673Y0599843*
X0662503Y0599679*
X0661347Y0599433*
X0660211Y0599108*
X0659101Y0598703*
X0658022Y0598223*
X0656978Y0597668*
X0655976Y0597042*
X065502Y0596347*
X0654115Y0595588*
X0653265Y0594767*
X0652474Y0593889*
X0651747Y0592958*
X0651086Y0591978*
X0650495Y0590955*
X0649977Y0589893*
X0649535Y0588797*
X0649169Y0587673*
X0648884Y0586527*
X0648678Y0585363*
X0648555Y0584188*
X0648514Y0583007*
Y05725D02*
D01*
X0648555Y0571319*
X0648678Y0570143*
X0648884Y056898*
X0649169Y0567833*
X0649535Y0566709*
X0649977Y0565614*
X0650495Y0564552*
X0651086Y0563528*
X0651747Y0562549*
X0652474Y0561618*
X0653265Y056074*
X0654115Y0559919*
X065502Y0559159*
X0655976Y0558465*
X0656978Y0557838*
X0658022Y0557284*
X0659101Y0556803*
X0660211Y0556399*
X0661347Y0556073*
X0662503Y0555828*
X0663673Y0555663*
X0664852Y0555581*
X0666034*
X0667212Y0555663*
X0668383Y0555828*
X0669538Y0556073*
X0670674Y0556399*
X0671785Y0556803*
X0672864Y0557284*
X0673907Y0557838*
X0674909Y0558465*
X0675865Y0559159*
X0676771Y0559919*
X0677621Y056074*
X0678411Y0561618*
X0679139Y0562549*
X06798Y0563528*
X068039Y0564552*
X0680908Y0565614*
X0681351Y0566709*
X0681716Y0567833*
X0682002Y056898*
X0682207Y0570143*
X0682331Y0571319*
X0682372Y05725*
Y0583007*
X0648514Y0572057D02*
Y0583007D01*
G54D16*
X054601Y0657805D03*
X054383Y0495734D03*
G54D17*
X0495877Y054721D03*
X0498436D03*
X0500994D03*
X0503553D03*
Y0562958D03*
X0500994D03*
X0498436D03*
X0495877D03*
X0597659Y0570948D03*
X05951D03*
X0592541D03*
X0589982D03*
Y05552D03*
X0592541D03*
X05951D03*
X0597659D03*
X0598864Y0608181D03*
X0596305D03*
X0593746D03*
X0591187D03*
Y0592433D03*
X0593746D03*
X0596305D03*
X0598864D03*
X0496799Y0600018D03*
X0499358D03*
X0501917D03*
X0504476D03*
Y058427D03*
X0501917D03*
X0499358D03*
X0496799D03*
G54D18*
X0507589Y0551245D03*
Y0553804D03*
Y0556363D03*
Y0558922D03*
X0491841D03*
Y0556363D03*
Y0553804D03*
Y0551245D03*
X0585946Y0566913D03*
Y0564354D03*
Y0561795D03*
Y0559236D03*
X0601694D03*
Y0561795D03*
Y0564354D03*
Y0566913D03*
X0587151Y0604145D03*
Y0601586D03*
Y0599027D03*
Y0596468D03*
X06029D03*
Y0599027D03*
Y0601586D03*
Y0604145D03*
X0492763Y0588305D03*
Y0590864D03*
Y0593423D03*
Y0595982D03*
X0508511D03*
Y0593423D03*
Y0590864D03*
Y0588305D03*
G54D19*
X0499715Y0555084D03*
X059382Y0563074D03*
X0595025Y0600307D03*
X0500637Y0592144D03*
G54D20*
X0570238Y0564354D03*
X0570322Y0596356D03*
X0524343Y055911D03*
Y0590864D03*
G54D21*
X057319Y0558901D03*
X0571222D03*
X0569253D03*
X0567285D03*
Y0569807D03*
X0569253D03*
X0571222D03*
X057319D03*
X0573274Y0601809D03*
X0571306D03*
X0569337D03*
X0567369D03*
Y0590903D03*
X0569337D03*
X0571306D03*
X0573274D03*
X052139Y0553657D03*
X0523359D03*
X0525327D03*
X0527296D03*
Y0564562D03*
X0525327D03*
X0523359D03*
X052139D03*
Y0596317D03*
X0523359D03*
X0525327D03*
X0527296D03*
Y0585411D03*
X0525327D03*
X0523359D03*
X052139D03*
G54D22*
X0564785Y0561401D03*
Y056337D03*
Y0565338D03*
Y0567307D03*
X057569D03*
Y0565338D03*
Y056337D03*
Y0561401D03*
X0575775Y0593403D03*
Y0595372D03*
Y059734D03*
Y0599309D03*
X0564869D03*
Y059734D03*
Y0595372D03*
Y0593403D03*
X051889Y0562063D03*
Y0560094D03*
Y0558126D03*
Y0556157D03*
X0529796D03*
Y0558126D03*
Y0560094D03*
Y0562063D03*
Y0593817D03*
Y0591848D03*
Y058988D03*
Y0587911D03*
X051889D03*
Y058988D03*
Y0591848D03*
Y0593817D03*
G54D23*
X049836Y0578518D03*
Y0574777D03*
X0547943Y0604003D03*
Y0607743D03*
X05Y0612098D03*
Y0615838D03*
X0505118Y0612098D03*
Y0615838D03*
X0510073Y0612098D03*
Y0615838D03*
X0541358Y0581869D03*
Y0585609D03*
X0493537Y0578422D03*
Y0574681D03*
X0488537Y0578422D03*
Y0574681D03*
X0480868Y0545385D03*
Y0549125D03*
X0485417Y0553806D03*
Y0557546D03*
X0479945Y0553948D03*
Y0557688D03*
X0543194Y0604076D03*
Y0607816D03*
X0552624Y0603092D03*
Y0606832D03*
X0538662Y0602784D03*
Y0606524D03*
X06295Y0600629D03*
Y060437D03*
X0477765Y0601959D03*
Y0598219D03*
X0591187Y0580688D03*
Y0576948D03*
X0586231Y0580688D03*
Y0576948D03*
X0574636Y0580588D03*
Y0584328D03*
X0569966D03*
Y0580588D03*
X0596305Y0580688D03*
Y0576948D03*
X0579332Y0580588D03*
Y0584328D03*
X0565371D03*
Y0580588D03*
X06029Y0611629D03*
Y061537D03*
X0529294Y0571138D03*
Y0574878D03*
X0515333D03*
Y0571138D03*
X0524699D03*
Y0574878D03*
X0520029D03*
Y0571138D03*
X0508434Y0574777D03*
Y0578518D03*
X0503478Y0574777D03*
Y0578518D03*
X0565287Y0548586D03*
X0579248D03*
X0595223Y0543456D03*
X0569882Y0548586D03*
X0574552D03*
X0623816Y0545344D03*
X0590105Y0543456D03*
X0565287Y0552326D03*
X0569882D03*
X0579248D03*
X0574552D03*
X0595223Y0539716D03*
X058515D03*
X0590105D03*
X058515Y0543456D03*
X0623816Y0549085D03*
X0524699Y0606632D03*
Y0602892D03*
X0529294Y0606632D03*
Y0602892D03*
X0520029D03*
Y0606632D03*
X0515333Y0602892D03*
Y0606632D03*
X0717833Y0555035D03*
Y0558774D03*
X07335Y0555129D03*
Y055887D03*
X0749304Y055512D03*
Y0558861D03*
G54D24*
X0754814Y0591799D03*
X0751074D03*
X0751092Y05966D03*
X0754833D03*
X05499Y0585811D03*
X054616D03*
X0515085Y0542714D03*
X0511344D03*
X0484609Y0540759D03*
X0480868D03*
X0578449Y0610634D03*
X0582189D03*
X057132Y0576235D03*
X0575061D03*
X0521729Y058141D03*
X052547D03*
X0465129Y0615D03*
X046887D03*
X0610057Y0614706D03*
X0613797D03*
X0598415Y0615131D03*
X0594675D03*
X0610129Y06095D03*
X061387D03*
X0623816Y0540718D03*
X0627557D03*
X0608353Y0558691D03*
X0612093D03*
X0608211Y0553218D03*
X0611951D03*
X0482629Y0602D03*
X048637D03*
X0482488Y0596527D03*
X0486228D03*
X0491629Y0610655D03*
X049537D03*
X0491525Y0615502D03*
X0495266D03*
X0724102Y0562451D03*
X0727842D03*
X075137Y0574666D03*
X0747629D03*
Y0580572D03*
X075137D03*
Y0568564D03*
X0747629D03*
X0713877Y0574948D03*
X0710137D03*
Y0568948D03*
X0713877D03*
X075487Y06015D03*
X0751129D03*
X0740448Y0602039D03*
X0736708D03*
X0740647Y0597144D03*
X0736907D03*
X0684129Y0578651D03*
X068787D03*
X0684129Y0585D03*
X068787D03*
Y0572303D03*
X0684129D03*
X074054Y0592389D03*
X07368D03*
G54D25*
X0615Y0587498D03*
Y0600687D03*
G54D26*
X0538662Y0598942D03*
Y0595202D03*
Y0591462D03*
X0548898D03*
Y0598942D03*
G54D27*
X0583864Y0586039D03*
X0588864D03*
X0593864D03*
X0598864D03*
X0603864D03*
X050964Y0569427D03*
X050464D03*
X049964D03*
X049464D03*
X048964D03*
X0598944Y0548807D03*
X0603944D03*
X0583944D03*
X0588944D03*
X0593944D03*
X0490637Y0606411D03*
X0495637D03*
X0500637D03*
X0505637D03*
X0510637D03*
G54D28*
X0608503Y0572838D03*
X0621692D03*
G54D29*
X0556644Y0585326D03*
Y0595326D03*
G54D30*
X0474133Y0540759D03*
Y054824D03*
X0465866Y05445D03*
X0619736Y0615269D03*
Y0607789D03*
X0628003Y0611529D03*
X0617081Y0540718D03*
X0608814Y0544459D03*
X0617081Y0548199D03*
X0477542Y0611762D03*
X048581Y0615502D03*
Y0608022D03*
G54D31*
X0472281Y0609137D03*
X0468541D03*
X0464801D03*
Y0598114D03*
X0472281D03*
G54D32*
X0533119Y0510257D03*
Y0502895D03*
Y0495533D03*
X0561546Y0495588D03*
Y050295D03*
Y0510312D03*
Y0645208D03*
Y065257D03*
Y0659933D03*
X0533119Y0645208D03*
Y065257D03*
Y0659933D03*
G54D33*
X048133Y0565155D03*
Y0590351D03*
G54D34*
X0471685Y0573029D03*
Y0582477D03*
G54D35*
X0482216Y0572635D03*
Y0575194D03*
Y0577753D03*
Y0580312D03*
Y0582871D03*
G54D36*
X0836937Y0612464D03*
X0831937D03*
X0826937D03*
X0821937D03*
X0816937D03*
X0811937D03*
X0806937D03*
X0801937D03*
X0796937D03*
X0791937D03*
X0786937D03*
X0781937D03*
X0776937D03*
X0771937D03*
Y0545535D03*
X0776937D03*
X0781937D03*
X0786937D03*
X0791937D03*
X0796937D03*
X0801937D03*
X0806937D03*
X0811937D03*
X0816937D03*
X0821937D03*
X0826937D03*
X0831937D03*
X0836937D03*
G54D37*
X0768Y06015D03*
Y05965D03*
Y05915D03*
Y05865D03*
Y05815D03*
Y05765D03*
Y05715D03*
Y05665D03*
Y05615D03*
Y05565D03*
G54D38*
X0814633Y0590161D03*
Y0582937D03*
Y0575712D03*
X0807409Y0590161D03*
Y0582937D03*
Y0575712D03*
X0800185Y0590161D03*
Y0582937D03*
Y0575712D03*
G54D39*
X05525Y05725D03*
X05425D03*
G54D40*
X072572Y0555086D03*
Y0540913D03*
X0741468Y0555086D03*
Y0540913D03*
X0757216Y0555086D03*
Y0540913D03*
X0709972Y0555086D03*
Y0540913D03*
G54D41*
X0740434Y0571467D03*
X0722717D03*
X0724686D03*
X0726654D03*
X0728623D03*
X0730591D03*
X073256D03*
X0734528D03*
X0736497D03*
X0738465D03*
X0740434Y058377D03*
X0738465D03*
X0736497D03*
X0734528D03*
X073256D03*
X0730591D03*
X0728623D03*
X0726654D03*
X0724686D03*
X0722717D03*
G54D42*
X0722471Y0580572D03*
Y0578603D03*
Y0576635D03*
Y0574666D03*
X074068D03*
Y0576635D03*
Y0578603D03*
Y0580572D03*
M02*